<svg width="0" height="0" class="hidden">
    <symbol xmlns="http://www.w3.org/2000/svg" viewBox="0 0 100 100" id="pinterest">
        <path fill-rule="evenodd" clip-rule="evenodd" d="M28.8662 97.9709C34.2738 93.1718 37.9862 86.3367 39.7985 79.3271C40.5292 76.564 43.5108 65.2498 43.5108 65.2498C45.44 68.9436 51.14 72.0558 57.1323 72.0558C75.08 72.0558 88 55.6516 88 35.2045C88 15.63 71.9523 1 51.3154 1C25.6215 1 12 18.1604 12 36.8333C12 45.5007 16.6477 56.3205 24.0723 59.7526C25.1831 60.3052 25.7969 60.0435 26.06 58.9382C26.2354 58.0948 27.2585 54.11 27.7262 52.2195C27.8723 51.6378 27.8138 51.0852 27.3169 50.5034C24.8615 47.5367 22.8738 42.0687 22.8738 37.0078C22.8738 23.9484 32.8123 11.2963 49.7369 11.2963C64.3523 11.2963 74.5831 21.1853 74.5831 35.379C74.5831 51.4051 66.4569 62.5157 55.8754 62.5157C50.0292 62.5157 45.6446 57.7166 47.0769 51.8123C48.7723 44.7736 52.0169 37.1823 52.0169 32.1214C52.0169 27.5841 49.5908 23.803 44.4754 23.803C38.4831 23.803 33.7185 29.94 33.7185 38.2003C33.7185 43.4357 35.4723 46.9841 35.4723 46.9841C35.4723 46.9841 29.5677 71.794 28.4862 76.4186C27.2877 81.5376 27.7554 88.7217 28.2815 93.4045L28.8077 98L28.8662 97.9709Z"></path>
    </symbol>
    <symbol xmlns="http://www.w3.org/2000/svg" viewBox="0 0 100 100" id="youtube">
        <path fill-rule="evenodd" clip-rule="evenodd" d="M88.7965 17.0601C93.0372 18.1937 96.3777 21.5342 97.5113 25.775C99.5714 33.4613 99.5714 49.5 99.5714 49.5C99.5714 49.5 99.5714 65.5387 97.5113 73.2251C96.3777 77.4658 93.0372 80.8063 88.7965 81.9399C81.1101 84 50.2857 84 50.2857 84C50.2857 84 19.4613 84 11.775 81.9399C7.53419 80.8063 4.19371 77.4658 3.06014 73.2251C1 65.5387 1 49.5 1 49.5C1 49.5 1 33.4613 3.06014 25.775C4.19371 21.5342 7.53419 18.1937 11.775 17.0601C19.4613 15 50.2857 15 50.2857 15C50.2857 15 81.1101 15 88.7965 17.0601ZM66.0352 49.5L40.4286 64.2857V34.7143L66.0352 49.5Z"></path>
    </symbol>
    <symbol xmlns="http://www.w3.org/2000/svg" viewBox="0 0 100 100" id="linkedin">
        <path d="M2.62114 33.5653H22.9603V98.9957H2.62114V33.5653ZM12.7757 1.00001C19.2646 1.00001 24.5386 6.28329 24.5386 12.7835C24.5386 19.2837 19.2646 24.5798 12.78 24.5798C9.65858 24.573 6.66687 23.3282 4.45928 21.1175C2.25169 18.9069 1.00791 15.9104 1 12.7835C0.999999 11.235 1.30468 9.70165 1.89662 8.27118C2.48857 6.8407 3.35616 5.54113 4.44981 4.44676C5.54346 3.3524 6.8417 2.4847 8.27033 1.89328C9.69895 1.30186 11.2299 0.998318 12.7757 1.00001ZM35.6599 33.5653H55.1308V42.5079H55.4002C58.1121 37.366 64.7336 31.9413 74.6486 31.9413C95.2059 31.9413 99 45.4944 99 63.1097V99H78.7122V67.1718C78.7122 59.5875 78.5753 49.8179 68.1641 49.8179C57.5988 49.8179 55.9734 58.0878 55.9734 66.6147V98.9829H35.6899V33.5524L35.6599 33.5653Z"></path>
    </symbol>
    <symbol xmlns="http://www.w3.org/2000/svg" viewBox="0 0 100 100" id="instagram">
        <path fill-rule="evenodd" clip-rule="evenodd" d="M72.8579 1H26.7422C12.6321 1 1 12.8386 1 27.224V72.2384C1 86.6925 12.5633 98.4623 26.7422 98.4623H72.8579C86.9679 98.4623 98.6 86.6237 98.6 72.2384V27.224C98.6 12.8386 86.9679 1 72.8579 1ZM89.8587 71.6189C89.8587 81.5992 81.8745 89.7899 72.0319 89.7899H27.5681C17.7943 89.7899 9.74129 81.5992 9.74129 71.6189V27.9123C9.74129 17.932 17.7255 9.74129 27.5681 9.74129H72.0319C81.8056 9.74129 89.8587 17.932 89.8587 27.9123V71.6189ZM49.8 24.7461C36.2406 24.7461 25.2968 35.9653 25.2968 49.8C25.2968 63.6347 36.3094 74.8539 49.8 74.8539C63.2905 74.8539 74.3033 63.6347 74.3033 49.8C74.3033 35.9653 63.3594 24.7461 49.8 24.7461ZM49.8 65.9749C41.0587 65.9749 33.9692 58.7478 33.9692 49.8C33.9692 40.8522 41.0587 33.6251 49.8 33.6251C58.5413 33.6251 65.6307 40.8522 65.6307 49.8C65.6307 58.679 58.5413 65.9749 49.8 65.9749ZM81.1174 23.3695C81.1174 26.4866 78.6522 29.0135 75.6111 29.0135C72.57 29.0135 70.1047 26.4866 70.1047 23.3695C70.1047 20.2524 72.57 17.7255 75.6111 17.7255C78.6522 17.7255 81.1174 20.2524 81.1174 23.3695Z"></path>
    </symbol>
    <symbol xmlns="http://www.w3.org/2000/svg" viewBox="0 0 100 100" id="facebook">
        <path d="M59.7907 20.6456H72.8637V1H57.7684C36.3894 1 36.895 18.2621 36.895 20.79V33.7907H27V53.4363H36.895C36.895 75.0319 36.895 99.3 36.895 99.3H56.4683C56.4683 99.3 56.4683 74.5264 56.4683 53.4363H69.5413L72.7915 33.7907H56.3961V23.968C56.5405 21.8012 57.7684 20.6456 59.7907 20.6456Z"></path>
    </symbol>
    <symbol xmlns="http://www.w3.org/2000/svg" viewBox="0 0 100 100" id="twitter">
        <path d="M96.1663 10.5743C92.3092 12.9357 87.9799 14.6675 83.4144 15.5333C79.7936 11.5189 74.5197 9 68.7735 9C57.6747 9 48.7012 18.2096 48.7012 29.6233C48.7012 31.2763 48.8586 32.7718 49.2522 34.3461C32.5646 33.4803 17.6876 25.294 7.76948 12.7783C6.03776 15.8482 5.01446 19.3904 5.01446 23.1687C5.01446 30.3317 8.55663 36.6289 13.988 40.3285C10.6819 40.2498 7.61204 39.3052 4.85702 37.7309V37.9671C4.85702 47.9638 11.7839 56.3076 20.9936 58.1968C19.3406 58.6691 17.5301 58.9052 15.7197 58.9052C14.4602 58.9052 13.1221 58.7478 11.9414 58.5116C14.539 66.698 21.9381 72.6803 30.7542 72.8377C23.906 78.3478 15.1687 81.6538 5.80161 81.6538C4.1486 81.6538 2.5743 81.5751 1 81.3389C9.89478 87.1638 20.4426 90.6273 31.8562 90.6273C68.8522 90.6273 89.0819 59.22 89.0819 31.9847C89.0819 31.1188 89.0819 30.1743 89.0032 29.3084C92.9389 26.396 96.3237 22.7751 99 18.6032C95.3791 20.2562 91.5221 21.3582 87.4289 21.8305C91.5221 19.3904 94.6707 15.3759 96.1663 10.5743Z"></path>
    </symbol>
</svg>
  